<svg width="40" height="40" viewBox="0 0 40 40" fill="none" xmlns="http://www.w3.org/2000/svg">
<g clip-path="url(#clip0_210_9)">
<path d="M25 33.3333H8.33333C6.12401 33.3307 4.00593 32.4519 2.4437 30.8896C0.88147 29.3274 0.00264643 27.2093 0 25L0 8.33333C0.00264643 6.12401 0.88147 4.00593 2.4437 2.4437C4.00593 0.88147 6.12401 0.00264643 8.33333 0L25 0C27.2093 0.00264643 29.3274 0.88147 30.8896 2.4437C32.4519 4.00593 33.3307 6.12401 33.3333 8.33333V25C33.3307 27.2093 32.4519 29.3274 30.8896 30.8896C29.3274 32.4519 27.2093 33.3307 25 33.3333ZM8.33333 3.33333C7.00725 3.33333 5.73548 3.86012 4.7978 4.7978C3.86012 5.73548 3.33333 7.00725 3.33333 8.33333V25C3.33333 26.3261 3.86012 27.5979 4.7978 28.5355C5.73548 29.4732 7.00725 30 8.33333 30H25C26.3261 30 27.5979 29.4732 28.5355 28.5355C29.4732 27.5979 30 26.3261 30 25V8.33333C30 7.00725 29.4732 5.73548 28.5355 4.7978C27.5979 3.86012 26.3261 3.33333 25 3.33333H8.33333ZM40 31.6667V10C40 9.55797 39.8244 9.13405 39.5118 8.82149C39.1993 8.50893 38.7754 8.33333 38.3333 8.33333C37.8913 8.33333 37.4674 8.50893 37.1548 8.82149C36.8423 9.13405 36.6667 9.55797 36.6667 10V31.6667C36.6667 32.9927 36.1399 34.2645 35.2022 35.2022C34.2645 36.1399 32.9927 36.6667 31.6667 36.6667H10C9.55797 36.6667 9.13405 36.8423 8.82149 37.1548C8.50893 37.4674 8.33333 37.8913 8.33333 38.3333C8.33333 38.7754 8.50893 39.1993 8.82149 39.5118C9.13405 39.8244 9.55797 40 10 40H31.6667C33.876 39.9974 35.9941 39.1185 37.5563 37.5563C39.1185 35.9941 39.9974 33.876 40 31.6667Z" fill="white"/>
</g>
<defs>
<clipPath id="clip0_210_9">
<rect width="40" height="40" fill="white"/>
</clipPath>
</defs>
</svg>
